<?xml version="1.0" encoding="utf-8"?>
<!-- Generator: Adobe Illustrator 24.0.2, SVG Export Plug-In . SVG Version: 6.00 Build 0)  -->
<svg version="1.1" id="Outline" xmlns="http://www.w3.org/2000/svg" xmlns:xlink="http://www.w3.org/1999/xlink" x="0px" y="0px"
	 viewBox="0 0 512 512" style="enable-background:new 0 0 512 512;" xml:space="preserve">
<path d="M128,16c-13.2,0-24,10.8-24,24v432c0,13.2,10.8,24,24,24h256c13.2,0,24-10.8,24-24V40c0-13.2-10.8-24-24-24H128z M392,472
	c0,4.4-3.6,8-8,8H128c-4.4,0-8-3.6-8-8v-24h272V472z M392,432H120V80h68.7l13.7,13.7c1.5,1.5,3.5,2.3,5.7,2.3h96
	c2.1,0,4.2-0.8,5.7-2.3L323.3,80H392V432z M392,40v24h-72c-2.1,0-4.2,0.8-5.7,2.3L300.7,80h-89.4l-13.7-13.7
	c-1.5-1.5-3.5-2.3-5.7-2.3h-72V40c0-4.4,3.6-8,8-8h256C388.4,32,392,35.6,392,40z"/>
<circle cx="224" cy="56" r="8"/>
<path d="M288,48h-32c-4.4,0-8,3.6-8,8s3.6,8,8,8h32c4.4,0,8-3.6,8-8S292.4,48,288,48z"/>
<path d="M160,96h-16c-4.4,0-8,3.6-8,8s3.6,8,8,8h16c4.4,0,8-3.6,8-8S164.4,96,160,96z"/>
<path d="M352,112h16c4.4,0,8-3.6,8-8s-3.6-8-8-8h-16c-4.4,0-8,3.6-8,8S347.6,112,352,112z"/>
<g>
	<path d="M320.4,174.9h-22.8c-2.6,0-4.8,2.1-4.8,4.8c0,2.6,2.1,4.8,4.8,4.8h22.8c4.4,0,8.1,3.6,8.1,8.1v22.8c0,2.6,2.1,4.8,4.8,4.8
		s4.8-2.1,4.8-4.8v-22.8C338,182.8,330.1,174.9,320.4,174.9z"/>
	<path d="M179.8,220.1c2.6,0,4.8-2.1,4.8-4.8v-22.8c0-4.4,3.6-8.1,8.1-8.1h22.8c2.6,0,4.8-2.1,4.8-4.8c0-2.6-2.1-4.8-4.8-4.8h-22.8
		c-9.7,0-17.6,7.9-17.6,17.6v22.8C175,218,177.1,220.1,179.8,220.1z"/>
	<path d="M215.4,328.3h-22.8c-4.4,0-8.1-3.6-8.1-8.1v-22.8c0-2.6-2.1-4.8-4.8-4.8s-4.8,2.1-4.8,4.8v22.8c0,9.7,7.9,17.6,17.6,17.6
		h22.8c2.6,0,4.8-2.1,4.8-4.8C220.2,330.5,218.1,328.3,215.4,328.3z"/>
	<path d="M333.2,292.7c-2.6,0-4.8,2.1-4.8,4.8v22.8c0,4.4-3.6,8.1-8.1,8.1h-22.8c-2.6,0-4.8,2.1-4.8,4.8c0,2.6,2.1,4.8,4.8,4.8h22.8
		c9.7,0,17.6-7.9,17.6-17.6v-22.8C338,294.8,335.9,292.7,333.2,292.7z"/>
	<path d="M283.8,209.9h15.1c2.1,0,3.8,1.7,3.8,3.8v15.1c0,2.6,2.1,4.8,4.8,4.8c2.6,0,4.8-2.1,4.8-4.8v-15.1c0-7.3-6-13.3-13.3-13.3
		h-15.1c-2.6,0-4.8,2.1-4.8,4.8C279,207.8,281.1,209.9,283.8,209.9z"/>
	<path d="M200.8,213.7v15.1c0,2.6,2.1,4.8,4.8,4.8s4.8-2.1,4.8-4.8v-15.1c0-2.1,1.7-3.8,3.8-3.8h15.1c2.6,0,4.8-2.1,4.8-4.8
		c0-2.6-2.1-4.8-4.8-4.8h-15.1C206.8,200.4,200.8,206.3,200.8,213.7z"/>
	<path d="M229.2,302.2h-15.1c-2.1,0-3.8-1.7-3.8-3.8v-15.1c0-2.6-2.1-4.8-4.8-4.8s-4.8,2.1-4.8,4.8v15.1c0,7.3,6,13.3,13.3,13.3
		h15.1c2.6,0,4.8-2.1,4.8-4.8C234,304.4,231.9,302.2,229.2,302.2z"/>
	<path d="M312.2,298.5v-15.1c0-2.6-2.1-4.8-4.8-4.8s-4.8,2.1-4.8,4.8v15.1c0,2.1-1.7,3.8-3.8,3.8h-15.1c-2.6,0-4.8,2.1-4.8,4.8
		c0,2.6,2.1,4.8,4.8,4.8h15.1C306.2,311.8,312.2,305.8,312.2,298.5z"/>
	<path d="M175.3,256.4c0,2.6,2.1,4.8,4.8,4.8h152.8c2.6,0,4.8-2.1,4.8-4.8c0-2.6-2.1-4.8-4.8-4.8H180.1
		C177.5,251.6,175.3,253.8,175.3,256.4z"/>
</g>
</svg>
